<?xml version="1.0" encoding="UTF-8"?>
<svg version="1.1" xmlns="http://www.w3.org/2000/svg" width="1080" height="1080">
<path d="M0 0 C21.61988371 2.46302473 43.08377959 17.11844987 60 30 C60.9178125 30.69738281 61.835625 31.39476563 62.78125 32.11328125 C65.22778486 34.03158699 67.61840184 36.0016903 70 38 C70.5053125 38.41652832 71.010625 38.83305664 71.53125 39.26220703 C84.00847453 49.55812432 95.88116592 60.61056248 105.90625 73.34765625 C108.13671932 76.17319481 110.46926946 78.89246692 112.8125 81.625 C169.17975827 149.40510345 193.30860487 242.92113234 185.75 329.8359375 C179.28722114 395.75265109 151.74617781 459.25636232 108 509 C107.36578125 509.73347656 106.7315625 510.46695312 106.078125 511.22265625 C104.39849438 513.16039524 102.70149853 515.08145382 101 517 C100.36191406 517.73089844 99.72382812 518.46179688 99.06640625 519.21484375 C94.51491005 524.36763853 89.78686275 529.31676871 84.9375 534.1875 C84.37216553 534.75742676 83.80683105 535.32735352 83.22436523 535.91455078 C78.9815167 540.14213946 74.55184707 544.10866641 70 548 C69.35554932 548.55115479 68.71109863 549.10230957 68.04711914 549.67016602 C40.13231328 573.35492616 8.81766711 592.90431162 -25 607 C-25.81194824 607.3398291 -26.62389648 607.6796582 -27.46044922 608.02978516 C-76.62382883 628.32605895 -130.21360777 634.73511073 -183 636 C-183.9192627 636.02336426 -184.83852539 636.04672852 -185.78564453 636.07080078 C-215.70776847 636.7178538 -245.85297194 634.95523467 -275.66830444 632.57910156 C-292.97674926 631.21074478 -310.19957262 630.7001117 -327.5625 630.6875 C-328.64736694 630.68409607 -329.73223389 630.68069214 -330.84997559 630.67718506 C-351.92005808 630.63909742 -372.92935614 631.8833264 -393.8125 634.75 C-395.04766357 634.91846436 -396.28282715 635.08692871 -397.55541992 635.26049805 C-435.95304477 640.72570237 -474.01625604 651.10758585 -509 668 C-509.69738281 668.33354492 -510.39476562 668.66708984 -511.11328125 669.01074219 C-540.18109602 682.97496487 -566.9518774 700.46346994 -591 722 C-592.45019531 723.28390625 -592.45019531 723.28390625 -593.9296875 724.59375 C-606.48980864 735.8944552 -618.5756852 747.68677626 -629 761 C-630.55922383 762.83612048 -632.12192725 764.66928994 -633.6875 766.5 C-676.40407976 817.86553177 -702.59128886 879.41719851 -724 942 C-724.33 942 -724.66 942 -725 942 C-724.42486426 932.23260858 -722.01648897 923.01150447 -719.625 913.5625 C-719.40546661 912.68817322 -719.18593323 911.81384644 -718.95974731 910.9130249 C-714.53227033 893.34774455 -709.33231924 876.08619422 -703.62768555 858.8973999 C-703.03467148 857.10480671 -702.44970078 855.30955846 -701.86523438 853.51416016 C-680.76493401 788.8149302 -648.68495835 726.78416261 -607 673 C-606.09236509 671.81516761 -605.18481272 670.63027199 -604.27734375 669.4453125 C-597.51563126 660.67368979 -590.35780849 652.27552704 -583 644 C-582.54641113 643.48711426 -582.09282227 642.97422852 -581.62548828 642.44580078 C-574.46391841 634.38669735 -566.85947008 626.75763025 -559.25 619.125 C-558.75413391 618.62645508 -558.25826782 618.12791016 -557.74737549 617.61425781 C-552.01232895 611.85572352 -546.19860219 606.26063291 -540 601 C-539.03578125 600.154375 -538.0715625 599.30875 -537.078125 598.4375 C-513.2246792 577.87872903 -486.72077071 559.91984338 -459 545 C-458.06704102 544.49774902 -457.13408203 543.99549805 -456.17285156 543.47802734 C-449.4905244 539.90180703 -442.76417055 536.41870539 -436 533 C-435.24702637 532.61811523 -434.49405273 532.23623047 -433.71826172 531.84277344 C-382.77796522 506.24991973 -327.47640072 489.65344633 -273.51037884 471.8079567 C-240.58354016 461.03439321 -240.58354016 461.03439321 -207.875 449.625 C-207.1593689 449.36607971 -206.44373779 449.10715942 -205.7064209 448.84039307 C-180.66495428 439.75496592 -156.01800658 429.52616108 -132 418 C-130.90026855 417.47470703 -129.80053711 416.94941406 -128.66748047 416.40820312 C-104.57669859 404.83382327 -81.72109606 391.58541579 -60 376 C-59.30084473 375.49903809 -58.60168945 374.99807617 -57.88134766 374.48193359 C-44.63550199 364.92291566 -32.45922359 354.29706248 -20.5 343.1875 C-19.53030273 342.29067505 -19.53030273 342.29067505 -18.54101562 341.37573242 C-14.05230319 337.15971508 -9.99643107 332.68080808 -6 328 C-5.02758188 326.89317617 -4.05370271 325.78763366 -3.078125 324.68359375 C29.6894402 287.23739608 60.25530276 234.50282022 60.01953125 183.24609375 C60.01671143 182.44743896 60.0138916 181.64878418 60.01098633 180.82592773 C60.00736084 180.22337158 60.00373535 179.62081543 60 179 C59.81002441 179.60134766 59.62004883 180.20269531 59.42431641 180.82226562 C47.19678835 219.22468609 30.65750219 255.63737615 5 287 C4.47970215 287.63599121 3.9594043 288.27198242 3.42333984 288.92724609 C-8.09107719 302.85857907 -20.69491609 315.92377789 -35 327 C-36.00546875 327.82242187 -37.0109375 328.64484375 -38.046875 329.4921875 C-53.25088848 341.87744104 -69.90724646 352.42957768 -87 362 C-87.90186035 362.50966309 -88.8037207 363.01932617 -89.73291016 363.54443359 C-130.9212536 386.70476144 -175.29026721 403.95162153 -220 419 C-220.77913757 419.26300903 -221.55827515 419.52601807 -222.36102295 419.79699707 C-257.20545976 431.54665103 -292.45632833 441.91847772 -327.78118896 452.11576843 C-404.25916619 474.09879941 -404.25916619 474.09879941 -478.02734375 503.70703125 C-481 505 -481 505 -483 505 C-481.52444771 457.62968338 -467.63436225 413.13685003 -436 377 C-435.35417969 376.24460937 -434.70835937 375.48921875 -434.04296875 374.7109375 C-423.40100211 362.54287622 -411.88853131 350.78179167 -399 341 C-397.82528358 340.08493992 -396.65082191 339.16955273 -395.4765625 338.25390625 C-372.36735462 320.41336256 -347.00220551 306.13915319 -321 293 C-319.96810547 292.47599609 -318.93621094 291.95199219 -317.87304688 291.41210938 C-291.19734197 277.95218994 -263.50161108 266.76326277 -235.875 255.4296875 C-209.58912631 244.64108936 -184.22823902 233.40733934 -159.83398438 218.70507812 C-157.09041214 217.05439683 -154.33640674 215.42283071 -151.578125 213.796875 C-141.50070653 207.8385139 -131.63230937 201.65419206 -122 195 C-121.3184082 194.53094238 -120.63681641 194.06188477 -119.93457031 193.57861328 C-110.01169115 186.72925222 -100.32099986 179.65125158 -91 172 C-90.13955078 171.29617187 -90.13955078 171.29617187 -89.26171875 170.578125 C-71.90746446 156.26375117 -55.92910325 140.44812067 -43 122 C-42.54447754 121.36255859 -42.08895508 120.72511719 -41.61962891 120.06835938 C-16.37723 84.61032055 -7.41378243 42.10431335 0 0 Z " fill="#0D9F37" transform="translate(725,24)"/>
<path d="M0 0 C0.66 0 1.32 0 2 0 C28.39061517 47.86018963 48.68973056 96.79958308 58 151 C58.17934082 152.00450195 58.35868164 153.00900391 58.54345703 154.04394531 C70.06213986 221.28010984 56.80377892 296.85815173 17.53125 353.10351562 C10.84460222 362.4630812 3.61417887 371.38234014 -4 380 C-4.46873535 380.53189941 -4.9374707 381.06379883 -5.42041016 381.61181641 C-17.1173207 394.79706481 -29.93506117 406.39714045 -44 417 C-44.58330078 417.44553223 -45.16660156 417.89106445 -45.76757812 418.35009766 C-109.04576505 466.60752946 -191.99112347 493.91648294 -271.4609375 494.203125 C-273.35968124 494.21167511 -273.35968124 494.21167511 -275.29678345 494.22039795 C-277.9710038 494.22979724 -280.64511353 494.23671803 -283.31933594 494.24023438 C-287.30160016 494.24668958 -291.28348193 494.28084859 -295.265625 494.3125 C-318.35927932 494.40801258 -341.22894131 492.74558845 -364 488.75 C-365.21743896 488.54020508 -366.43487793 488.33041016 -367.68920898 488.11425781 C-433.16655261 476.47421443 -496.74534719 451.20373739 -550 411 C-550.59989746 410.55172852 -551.19979492 410.10345703 -551.81787109 409.64160156 C-563.75043222 400.71835602 -575.00380927 391.04507863 -586 381 C-586.98355469 380.12085938 -587.96710938 379.24171875 -588.98046875 378.3359375 C-620.86968111 349.64499517 -646.61089633 314.51047895 -667.5625 277.25 C-667.98031738 276.51144775 -668.39813477 275.77289551 -668.82861328 275.01196289 C-671.00191242 271.08927985 -672.73996743 267.33178766 -674 263 C-669.64624436 261.93686124 -665.38618242 261.82332448 -660.9296875 261.796875 C-660.14462326 261.78981537 -659.35955902 261.78275574 -658.55070496 261.77548218 C-639.84660021 261.64611198 -621.51547686 262.05484498 -603 265 C-601.81083984 265.18804199 -600.62167969 265.37608398 -599.39648438 265.56982422 C-567.75644747 270.74032947 -536.89623624 279.33421065 -506.03462315 287.87546349 C-422.67090586 310.94712742 -339.69993455 325.51228904 -134.85791016 275.10668945 C-108.30838006 259.59332608 -84.27542077 238.74600539 -66 214 C-65.58927246 213.44521973 -65.17854492 212.89043945 -64.75537109 212.31884766 C-62.47709845 209.23129733 -60.22603997 206.12538563 -58 203 C-60.98159666 204.41382261 -63.66257193 206.04668428 -66.38671875 207.90625 C-67.23331055 208.47996338 -68.07990234 209.05367676 -68.95214844 209.64477539 C-69.85481445 210.25699951 -70.75748047 210.86922363 -71.6875 211.5 C-80.93612618 217.70290338 -90.25244036 223.61371551 -100 229 C-100.89074219 229.49322754 -101.78148437 229.98645508 -102.69921875 230.49462891 C-180.11016169 272.94789738 -266.2267294 285.04261833 -353 274 C-353.84371155 273.89345093 -354.6874231 273.78690186 -355.55670166 273.67712402 C-406.71593593 267.16893467 -456.22283918 255.2652884 -505.68502045 240.87451553 C-557.09238757 225.91834663 -607.48062194 214.74823264 -661.3125 214.8125 C-662.32878479 214.81343658 -663.34506958 214.81437317 -664.39215088 214.81533813 C-748.47646165 214.98292228 -832.0688692 239.26523777 -896.22070312 295.49169922 C-897.56221526 296.62889214 -898.93038169 297.73474987 -900.31054688 298.82470703 C-907.95943635 304.89063097 -914.85185238 311.54493007 -921.72558594 318.46484375 C-923.62215939 320.37214332 -925.52920305 322.26850059 -927.4375 324.1640625 C-934.4205822 331.13959984 -940.88073067 338.24750294 -947 346 C-947.92276456 347.09034778 -948.85242973 348.17494695 -949.79296875 349.25 C-961.84430262 363.09035733 -972.20378955 378.1284359 -982.375 393.375 C-982.79538544 394.00453583 -983.21577087 394.63407166 -983.64889526 395.28268433 C-988.75267738 402.9397935 -993.68748446 410.66377962 -998.39306641 418.57275391 C-1000 421 -1000 421 -1002 422 C-999.82064678 415.04036053 -997.12238279 408.49124203 -994.0625 401.875 C-993.33897339 400.30890991 -993.33897339 400.30890991 -992.60083008 398.71118164 C-978.23681576 367.92982815 -960.81405634 338.86507798 -940 312 C-939.37859131 311.19151611 -939.37859131 311.19151611 -938.74462891 310.36669922 C-933.66559984 303.76452556 -928.46957088 297.27448345 -923.0625 290.9375 C-922.41897583 290.18073975 -922.41897583 290.18073975 -921.76245117 289.40869141 C-912.80069751 279.01182753 -903.29393844 269.10719966 -893.59057617 259.40527344 C-891.92922292 257.74171192 -890.2760931 256.07024896 -888.62304688 254.3984375 C-882.84924167 248.59457544 -876.97405811 243.1590557 -870.55493164 238.05859375 C-868.09423854 236.07593114 -865.74653963 234.01320735 -863.40625 231.890625 C-858.96439834 227.90242604 -854.29564183 224.30039093 -849.5 220.75 C-848.62907715 220.10305176 -847.7581543 219.45610352 -846.86083984 218.78955078 C-844.245259 216.85323023 -841.62339452 214.92571558 -839 213 C-838.2668457 212.45762695 -837.53369141 211.91525391 -836.77832031 211.35644531 C-825.83570542 203.28671572 -814.40674551 196.25109817 -802.61035156 189.49902344 C-800.26874933 188.15433229 -797.94161673 186.78812519 -795.6171875 185.4140625 C-754.98807014 161.71770214 -709.39372902 148.95849934 -663 143 C-661.71577148 142.83338867 -660.43154297 142.66677734 -659.10839844 142.49511719 C-638.55168223 139.98718743 -617.93571542 139.69121416 -597.24991989 139.63208389 C-595.25628912 139.62523627 -593.26267838 139.61317215 -591.26907349 139.60092163 C-546.1947224 139.38849033 -501.30310265 144.09024028 -456.47949219 148.33325195 C-412.46420765 152.49595198 -368.49982068 156.64159572 -324.25 156.375 C-322.83603035 156.37023358 -321.42205927 156.3658769 -320.00808716 156.36190796 C-298.88589123 156.2933897 -277.96085736 155.77652146 -257 153 C-255.9858905 152.8691803 -255.9858905 152.8691803 -254.95129395 152.73571777 C-185.71232897 143.80049294 -116.88495563 121.93345071 -63 76 C-61.90425236 75.08911364 -60.8078627 74.1789992 -59.7109375 73.26953125 C-47.31012361 62.91122477 -35.90427097 51.79578632 -26 39 C-24.99553925 37.74679627 -23.99027386 36.49423721 -22.984375 35.2421875 C-14.26398013 24.25514318 -6.28709052 12.57418103 0 0 Z " fill="#0D9F37" transform="translate(1019,561)"/>
</svg>
